<mxfile host="app.diagrams.net" modified="2023-06-29T08:01:10.280Z" agent="Mozilla/5.0 (Windows NT 10.0; Win64; x64) AppleWebKit/537.36 (KHTML, like Gecko) Chrome/114.0.0.0 Safari/537.36" etag="OkrECBsFW8KLiTtNA-3B" version="21.3.2" type="github">
  <diagram name="Page-1" id="2YBvvXClWsGukQMizWep">
    <mxGraphModel dx="1050" dy="541" grid="1" gridSize="10" guides="1" tooltips="1" connect="1" arrows="1" fold="1" page="1" pageScale="1" pageWidth="850" pageHeight="1100" math="0" shadow="0">
      <root>
        <mxCell id="0" />
        <mxCell id="1" parent="0" />
        <mxCell id="T0MGSY4LoNNgBnZXiiNV-2" value="Gateway" style="rounded=0;whiteSpace=wrap;html=1;" vertex="1" parent="1">
          <mxGeometry x="60" y="170" width="90" height="150" as="geometry" />
        </mxCell>
        <mxCell id="T0MGSY4LoNNgBnZXiiNV-3" value="Eureka Server" style="rounded=0;whiteSpace=wrap;html=1;" vertex="1" parent="1">
          <mxGeometry x="45" y="60" width="120" height="60" as="geometry" />
        </mxCell>
        <mxCell id="T0MGSY4LoNNgBnZXiiNV-4" value="Security" style="rounded=0;whiteSpace=wrap;html=1;" vertex="1" parent="1">
          <mxGeometry x="45" y="380" width="120" height="60" as="geometry" />
        </mxCell>
        <mxCell id="T0MGSY4LoNNgBnZXiiNV-6" value="BlogDetails" style="rounded=0;whiteSpace=wrap;html=1;" vertex="1" parent="1">
          <mxGeometry x="290" y="10" width="120" height="60" as="geometry" />
        </mxCell>
        <mxCell id="T0MGSY4LoNNgBnZXiiNV-7" value="Subscribe" style="rounded=0;whiteSpace=wrap;html=1;" vertex="1" parent="1">
          <mxGeometry x="290" y="170" width="120" height="60" as="geometry" />
        </mxCell>
        <mxCell id="T0MGSY4LoNNgBnZXiiNV-8" value="OTP Service" style="rounded=0;whiteSpace=wrap;html=1;" vertex="1" parent="1">
          <mxGeometry x="290" y="250" width="120" height="60" as="geometry" />
        </mxCell>
        <mxCell id="T0MGSY4LoNNgBnZXiiNV-9" value="UserDetails" style="rounded=0;whiteSpace=wrap;html=1;" vertex="1" parent="1">
          <mxGeometry x="290" y="330" width="120" height="60" as="geometry" />
        </mxCell>
        <mxCell id="T0MGSY4LoNNgBnZXiiNV-10" value="Admin" style="rounded=0;whiteSpace=wrap;html=1;" vertex="1" parent="1">
          <mxGeometry x="290" y="410" width="120" height="60" as="geometry" />
        </mxCell>
        <mxCell id="T0MGSY4LoNNgBnZXiiNV-11" value="Super Admin" style="rounded=0;whiteSpace=wrap;html=1;" vertex="1" parent="1">
          <mxGeometry x="290" y="490" width="120" height="60" as="geometry" />
        </mxCell>
        <mxCell id="T0MGSY4LoNNgBnZXiiNV-12" value="Review" style="rounded=0;whiteSpace=wrap;html=1;" vertex="1" parent="1">
          <mxGeometry x="290" y="90" width="120" height="60" as="geometry" />
        </mxCell>
        <mxCell id="T0MGSY4LoNNgBnZXiiNV-14" value="MongoDB" style="shape=cylinder3;whiteSpace=wrap;html=1;boundedLbl=1;backgroundOutline=1;size=15;" vertex="1" parent="1">
          <mxGeometry x="490" y="10" width="60" height="60" as="geometry" />
        </mxCell>
        <mxCell id="T0MGSY4LoNNgBnZXiiNV-15" value="MongoDB" style="shape=cylinder3;whiteSpace=wrap;html=1;boundedLbl=1;backgroundOutline=1;size=15;" vertex="1" parent="1">
          <mxGeometry x="490" y="90" width="60" height="60" as="geometry" />
        </mxCell>
        <mxCell id="T0MGSY4LoNNgBnZXiiNV-16" value="MongoDB" style="shape=cylinder3;whiteSpace=wrap;html=1;boundedLbl=1;backgroundOutline=1;size=15;" vertex="1" parent="1">
          <mxGeometry x="490" y="170" width="60" height="60" as="geometry" />
        </mxCell>
        <mxCell id="T0MGSY4LoNNgBnZXiiNV-17" value="MongoDB" style="shape=cylinder3;whiteSpace=wrap;html=1;boundedLbl=1;backgroundOutline=1;size=15;" vertex="1" parent="1">
          <mxGeometry x="490" y="330" width="60" height="60" as="geometry" />
        </mxCell>
        <mxCell id="T0MGSY4LoNNgBnZXiiNV-18" value="MongoDB" style="shape=cylinder3;whiteSpace=wrap;html=1;boundedLbl=1;backgroundOutline=1;size=15;" vertex="1" parent="1">
          <mxGeometry x="490" y="410" width="60" height="60" as="geometry" />
        </mxCell>
        <mxCell id="T0MGSY4LoNNgBnZXiiNV-19" value="MongoDB" style="shape=cylinder3;whiteSpace=wrap;html=1;boundedLbl=1;backgroundOutline=1;size=15;" vertex="1" parent="1">
          <mxGeometry x="490" y="490" width="60" height="60" as="geometry" />
        </mxCell>
        <mxCell id="T0MGSY4LoNNgBnZXiiNV-21" value="" style="endArrow=none;html=1;edgeStyle=orthogonalEdgeStyle;rounded=0;exitX=1;exitY=0.5;exitDx=0;exitDy=0;entryX=0;entryY=0.5;entryDx=0;entryDy=0;" edge="1" parent="1" source="T0MGSY4LoNNgBnZXiiNV-2" target="T0MGSY4LoNNgBnZXiiNV-8">
          <mxGeometry relative="1" as="geometry">
            <mxPoint x="170" y="244.5" as="sourcePoint" />
            <mxPoint x="330" y="244.5" as="targetPoint" />
          </mxGeometry>
        </mxCell>
        <mxCell id="T0MGSY4LoNNgBnZXiiNV-22" value="parent" style="edgeLabel;resizable=0;html=1;align=left;verticalAlign=bottom;" connectable="0" vertex="1" parent="T0MGSY4LoNNgBnZXiiNV-21">
          <mxGeometry x="-1" relative="1" as="geometry" />
        </mxCell>
        <mxCell id="T0MGSY4LoNNgBnZXiiNV-23" value="child" style="edgeLabel;resizable=0;html=1;align=right;verticalAlign=bottom;" connectable="0" vertex="1" parent="T0MGSY4LoNNgBnZXiiNV-21">
          <mxGeometry x="1" relative="1" as="geometry" />
        </mxCell>
        <mxCell id="T0MGSY4LoNNgBnZXiiNV-24" value="" style="endArrow=none;html=1;edgeStyle=orthogonalEdgeStyle;rounded=0;entryX=0;entryY=0.5;entryDx=0;entryDy=0;exitX=1;exitY=0.5;exitDx=0;exitDy=0;" edge="1" parent="1" source="T0MGSY4LoNNgBnZXiiNV-2" target="T0MGSY4LoNNgBnZXiiNV-7">
          <mxGeometry relative="1" as="geometry">
            <mxPoint x="100" y="210" as="sourcePoint" />
            <mxPoint x="260" y="210" as="targetPoint" />
          </mxGeometry>
        </mxCell>
        <mxCell id="T0MGSY4LoNNgBnZXiiNV-26" value="child" style="edgeLabel;resizable=0;html=1;align=right;verticalAlign=bottom;" connectable="0" vertex="1" parent="T0MGSY4LoNNgBnZXiiNV-24">
          <mxGeometry x="1" relative="1" as="geometry" />
        </mxCell>
        <mxCell id="T0MGSY4LoNNgBnZXiiNV-27" value="" style="endArrow=none;html=1;edgeStyle=orthogonalEdgeStyle;rounded=0;entryX=0;entryY=0.5;entryDx=0;entryDy=0;exitX=1;exitY=0.5;exitDx=0;exitDy=0;" edge="1" parent="1" source="T0MGSY4LoNNgBnZXiiNV-2" target="T0MGSY4LoNNgBnZXiiNV-12">
          <mxGeometry relative="1" as="geometry">
            <mxPoint x="90" y="160" as="sourcePoint" />
            <mxPoint x="250" y="160" as="targetPoint" />
          </mxGeometry>
        </mxCell>
        <mxCell id="T0MGSY4LoNNgBnZXiiNV-29" value="child" style="edgeLabel;resizable=0;html=1;align=right;verticalAlign=bottom;" connectable="0" vertex="1" parent="T0MGSY4LoNNgBnZXiiNV-27">
          <mxGeometry x="1" relative="1" as="geometry" />
        </mxCell>
        <mxCell id="T0MGSY4LoNNgBnZXiiNV-30" value="" style="endArrow=none;html=1;edgeStyle=orthogonalEdgeStyle;rounded=0;entryX=0;entryY=0.5;entryDx=0;entryDy=0;exitX=1;exitY=0.5;exitDx=0;exitDy=0;" edge="1" parent="1" source="T0MGSY4LoNNgBnZXiiNV-2" target="T0MGSY4LoNNgBnZXiiNV-6">
          <mxGeometry relative="1" as="geometry">
            <mxPoint x="90" y="149" as="sourcePoint" />
            <mxPoint x="250" y="149" as="targetPoint" />
          </mxGeometry>
        </mxCell>
        <mxCell id="T0MGSY4LoNNgBnZXiiNV-32" value="child" style="edgeLabel;resizable=0;html=1;align=right;verticalAlign=bottom;" connectable="0" vertex="1" parent="T0MGSY4LoNNgBnZXiiNV-30">
          <mxGeometry x="1" relative="1" as="geometry" />
        </mxCell>
        <mxCell id="T0MGSY4LoNNgBnZXiiNV-33" value="" style="endArrow=none;html=1;edgeStyle=orthogonalEdgeStyle;rounded=0;entryX=0;entryY=0.5;entryDx=0;entryDy=0;exitX=1;exitY=0.5;exitDx=0;exitDy=0;" edge="1" parent="1" source="T0MGSY4LoNNgBnZXiiNV-2" target="T0MGSY4LoNNgBnZXiiNV-9">
          <mxGeometry relative="1" as="geometry">
            <mxPoint x="110" y="359.5" as="sourcePoint" />
            <mxPoint x="270" y="359.5" as="targetPoint" />
          </mxGeometry>
        </mxCell>
        <mxCell id="T0MGSY4LoNNgBnZXiiNV-35" value="child" style="edgeLabel;resizable=0;html=1;align=right;verticalAlign=bottom;" connectable="0" vertex="1" parent="T0MGSY4LoNNgBnZXiiNV-33">
          <mxGeometry x="1" relative="1" as="geometry" />
        </mxCell>
        <mxCell id="T0MGSY4LoNNgBnZXiiNV-36" value="" style="endArrow=none;html=1;edgeStyle=orthogonalEdgeStyle;rounded=0;entryX=0;entryY=0.5;entryDx=0;entryDy=0;exitX=1;exitY=0.5;exitDx=0;exitDy=0;" edge="1" parent="1" source="T0MGSY4LoNNgBnZXiiNV-2" target="T0MGSY4LoNNgBnZXiiNV-10">
          <mxGeometry relative="1" as="geometry">
            <mxPoint x="80" y="370" as="sourcePoint" />
            <mxPoint x="240" y="370" as="targetPoint" />
          </mxGeometry>
        </mxCell>
        <mxCell id="T0MGSY4LoNNgBnZXiiNV-38" value="child" style="edgeLabel;resizable=0;html=1;align=right;verticalAlign=bottom;" connectable="0" vertex="1" parent="T0MGSY4LoNNgBnZXiiNV-36">
          <mxGeometry x="1" relative="1" as="geometry" />
        </mxCell>
        <mxCell id="T0MGSY4LoNNgBnZXiiNV-39" value="" style="endArrow=none;html=1;edgeStyle=orthogonalEdgeStyle;rounded=0;entryX=0;entryY=0.5;entryDx=0;entryDy=0;exitX=1;exitY=0.5;exitDx=0;exitDy=0;" edge="1" parent="1" source="T0MGSY4LoNNgBnZXiiNV-2" target="T0MGSY4LoNNgBnZXiiNV-11">
          <mxGeometry relative="1" as="geometry">
            <mxPoint x="100" y="359.5" as="sourcePoint" />
            <mxPoint x="260" y="359.5" as="targetPoint" />
          </mxGeometry>
        </mxCell>
        <mxCell id="T0MGSY4LoNNgBnZXiiNV-41" value="child" style="edgeLabel;resizable=0;html=1;align=right;verticalAlign=bottom;" connectable="0" vertex="1" parent="T0MGSY4LoNNgBnZXiiNV-39">
          <mxGeometry x="1" relative="1" as="geometry" />
        </mxCell>
        <mxCell id="T0MGSY4LoNNgBnZXiiNV-46" value="" style="endArrow=none;html=1;edgeStyle=orthogonalEdgeStyle;rounded=0;entryX=0;entryY=0.5;entryDx=0;entryDy=0;entryPerimeter=0;exitX=1;exitY=0.5;exitDx=0;exitDy=0;" edge="1" parent="1" source="T0MGSY4LoNNgBnZXiiNV-9" target="T0MGSY4LoNNgBnZXiiNV-17">
          <mxGeometry relative="1" as="geometry">
            <mxPoint x="340" y="280" as="sourcePoint" />
            <mxPoint x="500" y="280" as="targetPoint" />
          </mxGeometry>
        </mxCell>
        <mxCell id="T0MGSY4LoNNgBnZXiiNV-49" value="" style="endArrow=none;html=1;edgeStyle=orthogonalEdgeStyle;rounded=0;exitX=1;exitY=0.5;exitDx=0;exitDy=0;entryX=0;entryY=0.5;entryDx=0;entryDy=0;entryPerimeter=0;" edge="1" parent="1" source="T0MGSY4LoNNgBnZXiiNV-10" target="T0MGSY4LoNNgBnZXiiNV-18">
          <mxGeometry relative="1" as="geometry">
            <mxPoint x="430" y="320" as="sourcePoint" />
            <mxPoint x="590" y="320" as="targetPoint" />
          </mxGeometry>
        </mxCell>
        <mxCell id="T0MGSY4LoNNgBnZXiiNV-52" value="" style="endArrow=none;html=1;edgeStyle=orthogonalEdgeStyle;rounded=0;exitX=1;exitY=0.5;exitDx=0;exitDy=0;entryX=0;entryY=0.5;entryDx=0;entryDy=0;entryPerimeter=0;" edge="1" parent="1" source="T0MGSY4LoNNgBnZXiiNV-11" target="T0MGSY4LoNNgBnZXiiNV-19">
          <mxGeometry relative="1" as="geometry">
            <mxPoint x="450" y="480" as="sourcePoint" />
            <mxPoint x="610" y="480" as="targetPoint" />
          </mxGeometry>
        </mxCell>
        <mxCell id="T0MGSY4LoNNgBnZXiiNV-55" value="" style="endArrow=none;html=1;edgeStyle=orthogonalEdgeStyle;rounded=0;entryX=0;entryY=0.5;entryDx=0;entryDy=0;entryPerimeter=0;exitX=1;exitY=0.5;exitDx=0;exitDy=0;" edge="1" parent="1" source="T0MGSY4LoNNgBnZXiiNV-7" target="T0MGSY4LoNNgBnZXiiNV-16">
          <mxGeometry relative="1" as="geometry">
            <mxPoint x="440" y="260" as="sourcePoint" />
            <mxPoint x="600" y="260" as="targetPoint" />
          </mxGeometry>
        </mxCell>
        <mxCell id="T0MGSY4LoNNgBnZXiiNV-58" value="" style="endArrow=none;html=1;edgeStyle=orthogonalEdgeStyle;rounded=0;exitX=1;exitY=0.5;exitDx=0;exitDy=0;entryX=0;entryY=0.5;entryDx=0;entryDy=0;entryPerimeter=0;" edge="1" parent="1" source="T0MGSY4LoNNgBnZXiiNV-12" target="T0MGSY4LoNNgBnZXiiNV-15">
          <mxGeometry relative="1" as="geometry">
            <mxPoint x="425" y="160" as="sourcePoint" />
            <mxPoint x="585" y="160" as="targetPoint" />
          </mxGeometry>
        </mxCell>
        <mxCell id="T0MGSY4LoNNgBnZXiiNV-61" value="" style="endArrow=none;html=1;edgeStyle=orthogonalEdgeStyle;rounded=0;entryX=0;entryY=0.5;entryDx=0;entryDy=0;entryPerimeter=0;exitX=1;exitY=0.5;exitDx=0;exitDy=0;" edge="1" parent="1" source="T0MGSY4LoNNgBnZXiiNV-6" target="T0MGSY4LoNNgBnZXiiNV-14">
          <mxGeometry relative="1" as="geometry">
            <mxPoint x="425" y="80" as="sourcePoint" />
            <mxPoint x="585" y="80" as="targetPoint" />
          </mxGeometry>
        </mxCell>
        <mxCell id="T0MGSY4LoNNgBnZXiiNV-64" value="" style="endArrow=classic;html=1;rounded=0;entryX=0.25;entryY=1;entryDx=0;entryDy=0;exitX=0.322;exitY=0.017;exitDx=0;exitDy=0;exitPerimeter=0;" edge="1" parent="1" source="T0MGSY4LoNNgBnZXiiNV-4" target="T0MGSY4LoNNgBnZXiiNV-2">
          <mxGeometry width="50" height="50" relative="1" as="geometry">
            <mxPoint x="400" y="310" as="sourcePoint" />
            <mxPoint x="90" y="330" as="targetPoint" />
          </mxGeometry>
        </mxCell>
        <mxCell id="T0MGSY4LoNNgBnZXiiNV-66" value="" style="endArrow=classic;html=1;rounded=0;entryX=0.635;entryY=0.03;entryDx=0;entryDy=0;entryPerimeter=0;exitX=0.689;exitY=0.991;exitDx=0;exitDy=0;exitPerimeter=0;" edge="1" parent="1" source="T0MGSY4LoNNgBnZXiiNV-2" target="T0MGSY4LoNNgBnZXiiNV-4">
          <mxGeometry width="50" height="50" relative="1" as="geometry">
            <mxPoint x="125" y="360" as="sourcePoint" />
            <mxPoint x="165" y="310" as="targetPoint" />
          </mxGeometry>
        </mxCell>
        <mxCell id="T0MGSY4LoNNgBnZXiiNV-68" value="" style="endArrow=none;html=1;edgeStyle=orthogonalEdgeStyle;rounded=0;exitX=0.5;exitY=1;exitDx=0;exitDy=0;entryX=0.5;entryY=0;entryDx=0;entryDy=0;" edge="1" parent="1" source="T0MGSY4LoNNgBnZXiiNV-3" target="T0MGSY4LoNNgBnZXiiNV-2">
          <mxGeometry relative="1" as="geometry">
            <mxPoint x="150" y="149" as="sourcePoint" />
            <mxPoint x="310" y="149" as="targetPoint" />
          </mxGeometry>
        </mxCell>
        <mxCell id="T0MGSY4LoNNgBnZXiiNV-71" value="" style="endArrow=none;html=1;rounded=0;exitX=1;exitY=0.5;exitDx=0;exitDy=0;" edge="1" parent="1" source="T0MGSY4LoNNgBnZXiiNV-3">
          <mxGeometry relative="1" as="geometry">
            <mxPoint x="80" y="149" as="sourcePoint" />
            <mxPoint x="220" y="90" as="targetPoint" />
          </mxGeometry>
        </mxCell>
      </root>
    </mxGraphModel>
  </diagram>
</mxfile>
